<?xml version="1.0" standalone="no"?>
<!DOCTYPE svg PUBLIC "-//W3C//DTD SVG 20010904//EN"
 "http://www.w3.org/TR/2001/REC-SVG-20010904/DTD/svg10.dtd">
<svg version="1.0" xmlns="http://www.w3.org/2000/svg"
 width="512.000000pt" height="512.000000pt" viewBox="0 0 512.000000 512.000000"
 preserveAspectRatio="xMidYMid meet">

<g transform="translate(0.000000,512.000000) scale(0.100000,-0.100000)"
fill="#000000" stroke="none">
<path d="M4620 5109 c-70 -14 -166 -66 -216 -117 -32 -33 -134 -201 -340 -557
l-294 -510 -634 -5 c-621 -5 -635 -5 -662 -26 -52 -38 -56 -103 -9 -150 l24
-24 576 0 c369 0 575 -4 575 -10 0 -5 -91 -167 -202 -360 l-202 -350 -1189 -2
-1189 -3 -29 -33 c-16 -18 -29 -44 -29 -58 0 -33 25 -81 49 -94 13 -7 391 -10
1140 -10 649 0 1121 -4 1121 -9 0 -5 -49 -94 -109 -197 l-109 -189 -1017 -5
-1017 -5 -29 -33 c-16 -18 -29 -44 -29 -58 0 -33 25 -81 49 -94 13 -7 348 -10
1005 -10 l986 0 0 -35 c0 -38 -28 -306 -36 -342 l-4 -23 -971 -2 -971 -3 -29
-33 c-16 -18 -29 -44 -29 -58 0 -33 25 -81 49 -94 13 -7 339 -10 975 -10 l956
0 0 -51 c0 -43 5 -55 29 -80 43 -43 84 -39 160 14 33 23 186 133 339 245 215
157 283 212 303 245 14 23 192 330 395 682 l369 640 3 -985 c3 -1102 6 -1054
-68 -1168 -43 -67 -95 -112 -177 -150 l-58 -27 -1225 -5 c-941 -4 -1230 -8
-1246 -17 -12 -7 -102 -152 -200 -323 -99 -170 -181 -310 -184 -310 -3 0 -85
140 -184 310 -128 224 -186 314 -205 324 -17 9 -77 15 -176 18 -137 4 -155 7
-209 31 -115 53 -189 137 -227 258 -18 58 -19 107 -19 1082 0 638 4 1038 10
1065 37 159 173 286 335 312 34 6 292 10 593 10 l534 0 29 29 c40 40 40 89 0
133 l-29 33 -584 0 -583 0 -81 -27 c-187 -64 -333 -209 -397 -398 l-22 -65 -3
-1057 c-3 -1178 -5 -1135 65 -1277 26 -53 59 -97 108 -147 125 -126 268 -184
454 -184 l96 0 200 -347 c110 -191 212 -361 226 -378 22 -24 35 -30 69 -30 34
0 47 6 69 31 14 16 116 186 226 377 l200 347 1166 0 c1133 0 1168 1 1244 20
218 56 395 240 441 459 12 62 14 223 12 1129 l-3 1057 -23 68 -23 68 272 472
c150 259 281 493 291 520 92 241 -63 508 -321 557 -62 11 -88 11 -151 -1z
m137 -201 c60 -15 137 -87 152 -143 19 -71 13 -109 -29 -191 -22 -42 -41 -79
-44 -81 -3 -3 -363 201 -375 213 -11 11 58 119 97 154 61 54 119 69 199 48z
m-211 -484 c101 -58 184 -108 184 -110 0 -6 -1240 -2157 -1249 -2166 -11 -11
-376 207 -373 223 2 8 267 470 588 1027 691 1197 654 1132 660 1132 3 0 89
-48 190 -106z m-1303 -2379 l88 -52 -161 -117 c-89 -65 -163 -116 -165 -114
-2 2 5 92 17 201 l21 197 56 -32 c31 -18 96 -55 144 -83z"/>
<path d="M2050 3909 c-61 -24 -84 -82 -56 -137 20 -38 44 -52 91 -52 50 0 95
44 95 94 0 65 -72 117 -130 95z"/>
</g>
</svg>
