<?xml version="1.0" standalone="no"?>
<!DOCTYPE svg PUBLIC "-//W3C//DTD SVG 20010904//EN"
 "http://www.w3.org/TR/2001/REC-SVG-20010904/DTD/svg10.dtd">
<svg version="1.0" xmlns="http://www.w3.org/2000/svg"
 width="512.000000pt" height="512.000000pt" viewBox="0 0 512.000000 512.000000"
 preserveAspectRatio="xMidYMid meet">

<g transform="translate(0.000000,512.000000) scale(0.100000,-0.100000)"
fill="#000000" stroke="none">
<path d="M378 4904 c-179 -43 -316 -179 -363 -361 -23 -86 -23 -2890 0 -2976
43 -167 152 -286 321 -349 59 -23 61 -23 788 -26 l729 -3 -7 -92 c-15 -195
-53 -400 -107 -579 l-30 -98 -180 0 c-196 0 -225 -7 -248 -57 -28 -61 -4 -124
55 -149 50 -21 2398 -21 2448 0 59 25 83 88 55 149 -23 50 -52 57 -248 57
l-180 0 -30 98 c-54 179 -92 384 -107 579 l-7 92 729 3 c727 3 729 3 788 26
169 63 278 182 321 349 23 86 23 2890 0 2976 -48 185 -184 319 -367 362 -91
21 -4272 21 -4360 -1z m4312 -215 c72 -15 137 -64 174 -129 l31 -55 3 -1292 2
-1293 -2340 0 -2340 0 2 1293 3 1292 31 54 c35 63 93 109 161 127 64 17 4193
20 4273 3z m207 -3038 c-11 -93 -71 -175 -157 -215 l-45 -21 -2135 0 -2135 0
-45 21 c-86 40 -146 122 -157 215 l-6 49 2343 0 2343 0 -6 -49z m-1843 -558
c13 -182 53 -418 96 -569 11 -38 20 -77 20 -86 0 -17 -35 -18 -610 -18 -575 0
-610 1 -610 18 0 9 9 48 20 86 43 151 83 387 96 569 l7 97 487 0 487 0 7 -97z"/>
<path d="M2767 4388 c-25 -28 -73 -166 -315 -911 -258 -795 -284 -881 -276
-914 10 -42 61 -83 101 -83 36 0 81 27 97 58 7 15 141 418 296 895 308 946
299 911 239 961 -46 39 -103 36 -142 -6z"/>
<path d="M1779 4177 c-20 -12 -202 -165 -406 -339 -253 -217 -375 -328 -383
-349 -29 -69 -18 -81 380 -420 201 -172 380 -323 397 -336 86 -66 200 3 176
105 -7 33 -47 70 -338 320 -182 155 -331 286 -333 291 -2 5 142 133 320 285
204 175 330 290 342 312 25 48 9 106 -37 134 -42 26 -74 25 -118 -3z"/>
<path d="M3223 4180 c-46 -28 -62 -86 -37 -134 12 -22 138 -137 342 -312 178
-152 322 -280 320 -285 -2 -5 -151 -136 -333 -291 -291 -250 -331 -287 -338
-320 -24 -102 90 -171 176 -105 17 13 196 164 397 336 398 339 409 351 380
420 -8 21 -130 132 -383 349 -204 174 -386 327 -406 339 -44 28 -76 29 -118 3z"/>
<path d="M1044 2346 c-18 -8 -37 -28 -47 -49 -21 -44 -21 -50 0 -94 41 -88
183 -80 213 11 32 98 -65 176 -166 132z"/>
<path d="M1614 2350 c-66 -27 -84 -117 -35 -172 l29 -33 1209 -3 c825 -2 1220
0 1244 8 63 18 92 85 63 145 -32 69 45 65 -1286 64 -662 0 -1213 -4 -1224 -9z"/>
</g>
</svg>
